<svg xmlns="http://www.w3.org/2000/svg" style="display: none;">
  <symbol id="helmet" viewBox="0 0 24 24">
    <path d="M12 2C8.13 2 5 5.13 5 9v3c0 1.66 1.34 3 3 3h8c1.66 0 3-1.34 3-3V9c0-3.87-3.13-7-7-7z" fill="currentColor"/>
    <path d="M5 12v2c0 2.21 1.79 4 4 4h6c2.21 0 4-1.79 4-4v-2" stroke="currentColor" fill="none" stroke-width="2"/>
  </symbol>
  
  <symbol id="shield-star" viewBox="0 0 24 24">
    <path d="M12 2L4 6v6c0 5.55 3.84 10.74 8 12 4.16-1.26 8-6.45 8-12V6l-8-4z" stroke="currentColor" fill="none" stroke-width="2"/>
    <path d="M12 8l1.5 3 3.5.5-2.5 2.5.5 3.5-3-1.5-3 1.5.5-3.5L7 11.5l3.5-.5z" fill="currentColor"/>
  </symbol>
  
  <symbol id="dog-tag" viewBox="0 0 24 24">
    <rect x="8" y="4" width="8" height="16" rx="2" stroke="currentColor" fill="none" stroke-width="2"/>
    <circle cx="12" cy="10" r="1.5" fill="currentColor"/>
    <line x1="10" y1="14" x2="14" y2="14" stroke="currentColor" stroke-width="1.5"/>
    <line x1="10" y1="17" x2="14" y2="17" stroke="currentColor" stroke-width="1.5"/>
  </symbol>
  
  <symbol id="compass" viewBox="0 0 24 24">
    <circle cx="12" cy="12" r="9" stroke="currentColor" fill="none" stroke-width="2"/>
    <path d="M12 3v2M12 19v2M3 12h2M19 12h2" stroke="currentColor" stroke-width="1.5"/>
    <path d="M12 8l-2 6 6-2-4-4z" fill="currentColor"/>
  </symbol>
  
  <symbol id="medal" viewBox="0 0 24 24">
    <circle cx="12" cy="15" r="5" stroke="currentColor" fill="none" stroke-width="2"/>
    <path d="M12 10L9 3h6l-3 7z" fill="currentColor"/>
    <path d="M12 13l1 2-1 1-1-1z" fill="currentColor"/>
  </symbol>
</svg>
