<svg xmlns="http://www.w3.org/2000/svg" xmlns:xlink="http://www.w3.org/1999/xlink" width="500" zoomAndPan="magnify" viewBox="0 0 375 374.999991" height="500" preserveAspectRatio="xMidYMid meet" version="1.0"><defs><clipPath id="7d48951108"><path d="M 0 0 L 372.75 0 L 372.75 375 L 0 375 Z M 0 0 " clip-rule="nonzero"/></clipPath></defs><g clip-path="url(#7d48951108)"><path fill="#ffffff" d="M 318.402344 54.644531 C 283.367188 19.550781 236.777344 0.191406 187.132812 0.191406 C 84.84375 0.191406 1.59375 83.46875 1.554688 185.851562 C 1.554688 218.570312 10.09375 250.527344 26.332031 278.671875 L 0 374.882812 L 98.382812 349.054688 C 125.492188 363.859375 156.007812 371.640625 187.058594 371.660156 L 187.132812 371.660156 C 289.40625 371.660156 372.675781 288.359375 372.695312 186 C 372.695312 136.382812 353.4375 89.75 318.382812 54.644531 Z M 187.132812 340.3125 L 187.078125 340.3125 C 159.414062 340.3125 132.25 332.863281 108.566406 318.800781 L 102.9375 315.449219 L 44.550781 330.769531 L 60.125 273.816406 L 56.457031 267.980469 C 41.015625 243.414062 32.867188 215.011719 32.886719 185.851562 C 32.921875 100.773438 102.121094 31.539062 187.191406 31.539062 C 228.390625 31.539062 267.109375 47.621094 296.238281 76.800781 C 325.363281 105.960938 341.382812 144.738281 341.363281 185.980469 C 341.328125 271.074219 272.128906 340.3125 187.117188 340.3125 Z M 271.738281 224.738281 C 267.109375 222.421875 244.316406 211.195312 240.054688 209.660156 C 235.796875 208.101562 232.722656 207.34375 229.632812 211.972656 C 226.539062 216.625 217.652344 227.074219 214.945312 230.167969 C 212.242188 233.261719 209.539062 233.652344 204.890625 231.316406 C 200.261719 229 185.320312 224.089844 167.597656 208.289062 C 153.820312 195.984375 144.507812 180.792969 141.804688 176.144531 C 139.101562 171.492188 141.527344 168.992188 143.839844 166.675781 C 145.914062 164.601562 148.46875 161.246094 150.804688 158.542969 C 153.117188 155.835938 153.894531 153.890625 155.433594 150.796875 C 156.988281 147.703125 156.210938 145 155.042969 142.664062 C 153.878906 140.347656 144.617188 117.503906 140.75 108.222656 C 136.988281 99.179688 133.15625 100.40625 130.324219 100.257812 C 127.621094 100.125 124.527344 100.089844 121.433594 100.089844 C 118.34375 100.089844 113.324219 101.238281 109.066406 105.886719 C 104.808594 110.539062 92.84375 121.765625 92.84375 144.589844 C 92.84375 167.417969 109.453125 189.480469 111.789062 192.59375 C 114.101562 195.6875 144.488281 242.542969 191.003906 262.644531 C 202.058594 267.425781 210.707031 270.277344 217.445312 272.429688 C 228.558594 275.964844 238.667969 275.464844 246.648438 274.261719 C 255.554688 272.929688 274.070312 263.035156 277.941406 252.195312 C 281.8125 241.359375 281.8125 232.074219 280.644531 230.128906 C 279.480469 228.183594 276.386719 227.035156 271.757812 224.703125 Z M 271.738281 224.738281 " fill-opacity="1" fill-rule="evenodd"/></g></svg>