<svg xmlns="http://www.w3.org/2000/svg" width="329" height="329" viewBox="0 0 329 329">
  <defs>
    <style>
      .cls-1 {
        fill: #010000;
        fill-rule: evenodd;
      }
    </style>
  </defs>
  <path id="Icon4.svg" class="cls-1" d="M1664.15,605.354h-27.6a130.414,130.414,0,0,1-123.2,123.193v27.6a6.85,6.85,0,1,1-13.7,0v-27.6a130.414,130.414,0,0,1-123.2-123.193h-27.6a6.854,6.854,0,0,1,0-13.708h27.6a130.413,130.413,0,0,1,123.2-123.193v-27.6a6.85,6.85,0,1,1,13.7,0v27.6a130.413,130.413,0,0,1,123.2,123.193h27.6A6.854,6.854,0,0,1,1664.15,605.354Zm-61.69-13.708h20.34A116.666,116.666,0,0,0,1513.35,482.2v20.342a6.85,6.85,0,1,1-13.7,0V482.2A116.666,116.666,0,0,0,1390.2,591.646h20.34a6.854,6.854,0,1,1,0,13.708H1390.2A116.666,116.666,0,0,0,1499.65,714.8V694.458a6.85,6.85,0,1,1,13.7,0V714.8A116.666,116.666,0,0,0,1622.8,605.354h-20.34A6.854,6.854,0,1,1,1602.46,591.646Zm-55.31,25.214,8.43,41.979a6.852,6.852,0,0,1-9.82,7.46l-39.24-19.954L1467.27,666.3a6.851,6.851,0,0,1-9.82-7.464l8.43-41.975-32.7-32.246a6.858,6.858,0,0,1,4.23-11.71l44-3.769,18.86-41.931a6.852,6.852,0,0,1,12.5,0l18.86,41.931,43.99,3.769a6.851,6.851,0,0,1,4.23,11.71Zm-20.7-34.408a6.833,6.833,0,0,1-5.67-4.019l-14.26-31.707-14.26,31.707a6.86,6.86,0,0,1-5.67,4.019l-33.19,2.841,24.75,24.409a6.853,6.853,0,0,1,1.9,6.231l-6.38,31.731,29.74-15.117a6.859,6.859,0,0,1,6.21,0l29.74,15.117-6.38-31.734a6.823,6.823,0,0,1,1.91-6.228l24.75-24.409Z" transform="translate(-1342 -434)"/>
</svg>

