<svg xmlns="http://www.w3.org/2000/svg" width="315" height="329" viewBox="0 0 315 329">
  <defs>
    <style>
      .cls-1 {
        fill: #ffd75a;
        fill-rule: evenodd;
      }
    </style>
  </defs>
  <path id="Icon3.svg" class="cls-1" d="M526.609,687.058V763h-13.7V605.354h13.7v67.719c6.963-1.646,13.695-5.807,13.695-12.886V591.646c0-18.94-17.2-27.417-34.239-27.417h-13.7v-0.148C473.2,562.5,458.13,547.8,458.13,529.958V509.4c0-18.9,16.9-34.271,37.663-34.271S533.456,490.5,533.456,509.4v20.562a32.494,32.494,0,0,1-9.787,23.022C542.147,558.5,554,572.873,554,591.646v68.541C554,675.55,540.871,684.8,526.609,687.058ZM519.761,509.4c0-11.338-10.752-20.563-23.968-20.563s-23.967,9.225-23.967,20.563v20.562c0,11.338,10.752,20.563,23.967,20.563s23.968-9.225,23.968-20.563V509.4Zm-82.174,6.854c0,9.517-4.679,18.138-12.215,24.354a123.121,123.121,0,0,1,16.859,5.355c24.46,9.922,29.6,22.866,29.6,31.978v61.688c0,15.613-12.368,30.008-27.391,33.476V763h-13.7V591.646h13.7v67.133c7.988-3.287,13.695-11.811,13.695-19.154V577.937c0-15.643-37.387-27.416-61.63-27.416a119.178,119.178,0,0,0-40.588,8.142c-6.327,2.567-21.043,9.582-21.043,19.274v61.688c0,7.343,5.708,15.867,13.7,19.154V591.646h13.7V763h-13.7V673.1c-15.023-3.468-27.391-17.863-27.391-33.476V577.937c0-19.7,23.488-31.726,46.45-37.335-7.534-6.216-12.211-14.836-12.211-24.352V502.542h-13.7V488.833h6.874c0.112-9.813.7-19.583,3.83-27.969,4.166-11.171,12.077-17.689,23.535-19.483v-0.527A6.851,6.851,0,0,1,382.8,434H410.2a6.85,6.85,0,0,1,6.847,6.854v0.527c11.459,1.794,19.37,8.312,23.536,19.483,3.127,8.386,3.718,18.156,3.829,27.969h6.875v13.709h-13.7V516.25Zm-68.478,0c0,11.338,12.287,20.562,27.391,20.562s27.391-9.224,27.391-20.562V502.542H369.109V516.25Zm47.934-60.9v1.063H403.348v-8.709h-13.7v8.709h-13.7v-1.063c-10.972,2.884-13.289,13.794-13.64,33.479h68.368C430.332,469.148,428.016,458.238,417.043,455.354ZM300.63,564.081v0.148H286.935c-17.043,0-34.239,8.477-34.239,27.417v68.541c0,7.079,6.732,11.24,13.7,12.886V605.354h13.7V763h-13.7V687.058C252.129,684.8,239,675.55,239,660.187V591.646c0-18.773,11.853-33.15,30.331-38.666a32.5,32.5,0,0,1-9.788-23.022V509.4c0-18.9,16.9-34.271,37.663-34.271S334.869,490.5,334.869,509.4v20.562C334.869,547.8,319.8,562.5,300.63,564.081ZM321.174,509.4c0-11.338-10.752-20.563-23.968-20.563s-23.967,9.225-23.967,20.563v20.562c0,11.338,10.752,20.563,23.967,20.563s23.968-9.225,23.968-20.563V509.4ZM403.348,763h-13.7V660.187h13.7V763Z" transform="translate(-239 -434)"/>
</svg>

