<svg xmlns="http://www.w3.org/2000/svg" width="295.75" height="328.812" viewBox="0 0 295.75 328.812">
  <defs>
    <style>
      .cls-1 {
        fill: #ffd75a;
        fill-rule: evenodd;
      }
    </style>
  </defs>
  <path id="Icon1.svg" class="cls-1" d="M933.221,470.188L901.35,511.144l23.313,18.292-13.658,17.549-11.656-9.137,4.553-5.86-58.269-45.716-4.553,5.853-11.655-9.138,13.659-17.557,23.308,18.287,31.867-40.964A22.131,22.131,0,0,1,929.4,438.91,22.374,22.374,0,0,1,933.221,470.188Zm-12.93-19.573a7.364,7.364,0,0,0-10.377,1.283l-31.869,40.961L889.7,502l31.868-40.959A7.46,7.46,0,0,0,920.291,450.615Zm-67.559,50.654,11.656,9.138-20.8,26.736c4.023,2.836,8.207,5.538,12.507,8.045l19.943-25.63L887.7,528.7l-18.2,23.395c10.348,4.62,21.127,7.752,31.9,8.4a7.408,7.408,0,0,1,6.95,7.411v22.278c0,40.41-14.961,73.775-34.09,99.936L886.6,705.983c16.19,20.82,16.255,46.52,16.251,47.608L902.808,763l-9.106-2.233c-1.051-.261-25.874-6.549-42.063-27.347l-7.578-9.745c-25.146,23.132-48.554,35.408-50.662,36.49a7.381,7.381,0,0,1-6.731,0C784.56,759.087,761.15,746.81,736,723.677l-7.575,9.74c-16.19,20.8-41.012,27.093-42.063,27.354L677.258,763l-0.043-9.413c0-1.088.062-26.788,16.248-47.6l12.346-15.87c-19.129-26.161-34.089-59.526-34.089-99.936V567.906a7.408,7.408,0,0,1,6.95-7.411c10.77-.652,21.55-3.786,31.9-8.407l-18.2-23.392,11.656-9.138,19.942,25.631c4.3-2.507,8.485-5.21,12.508-8.046l-20.8-26.736,11.656-9.138,20.918,26.894c17.881-14.7,31.109-30.465,35.306-38.106,2.6-4.728,10.348-4.728,12.948,0,4.2,7.641,17.426,23.409,35.308,38.106ZM863.293,724.28c7.084,9.1,16.393,14.8,23.466,18.122-1.509-7.724-4.77-18.217-11.81-27.275l-10.132-13.022c-3.314,3.915-6.691,7.637-10.09,11.162Zm-158.179-9.145c-7.076,9.1-10.337,19.55-11.835,27.245,7.1-3.336,16.453-9.058,23.494-18.108l8.565-11.007c-3.4-3.522-6.772-7.243-10.084-11.155Zm84.919-208.2c-17.623,23.221-59.279,61.51-103.524,67.689v15.562c0,90.453,85.337,144.422,103.521,154.887,18.165-10.487,103.528-64.593,103.528-154.887V574.622C849.313,568.443,807.657,530.154,790.033,506.933Zm56.752,105.972-25.545,23.46,7.994,33.329a7.411,7.411,0,0,1-7.189,9.166,7.354,7.354,0,0,1-3.917-1.131l-28.037-17.586-28.033,17.586a7.361,7.361,0,0,1-8.24-.268,7.442,7.442,0,0,1-2.867-7.767l8-33.329L733.4,612.9A7.435,7.435,0,0,1,738,600l32.709-1.718,12.467-33.055a7.384,7.384,0,0,1,13.829,0l12.464,33.055L842.182,600A7.435,7.435,0,0,1,846.785,612.905Zm-42.9-.044a7.414,7.414,0,0,1-6.529-4.786L790.1,588.821l-7.261,19.254a7.413,7.413,0,0,1-6.528,4.786l-19.9,1.045,15.736,14.453a7.451,7.451,0,0,1,2.2,7.222l-4.781,19.928L786.173,645.1a7.346,7.346,0,0,1,7.836,0l16.612,10.413-4.78-19.928a7.45,7.45,0,0,1,2.2-7.222l15.735-14.453ZM734.433,486.272l-58.268,45.716,4.552,5.86-11.655,9.137L655.4,529.436l23.313-18.292L646.846,470.18a22.22,22.22,0,1,1,34.962-27.434l31.867,40.971,23.307-18.287,13.66,17.557-11.656,9.138Zm-64.28-34.381a7.378,7.378,0,0,0-10.384-1.276,7.454,7.454,0,0,0-1.268,10.42L690.369,502l11.653-9.143Z" transform="translate(-642.156 -434.188)"/>
</svg>

