<svg xmlns="http://www.w3.org/2000/svg" width="184" height="329.062" viewBox="0 0 184 329.062">
  <defs>
    <style>
      .cls-1 {
        fill: #ffd75a;
        fill-rule: evenodd;
      }
    </style>
  </defs>
  <path id="Icon2.svg" class="cls-1" d="M1267.84,700.316l-84.33,61.216a7.679,7.679,0,0,1-9.02,0l-84.33-61.216a7.659,7.659,0,0,1-3.16-6.188V640.564a7.67,7.67,0,0,1,12.18-6.187L1179,692.32l79.83-57.943a7.665,7.665,0,0,1,12.17,6.187v53.564A7.659,7.659,0,0,1,1267.84,700.316Zm-12.17-44.724-72.16,52.376a7.685,7.685,0,0,1-9.02,0l-72.16-52.376v34.639L1179,745.884l76.67-55.653V655.592Zm12.17-54.752-84.33,61.216a7.679,7.679,0,0,1-9.02,0l-84.33-61.216a7.659,7.659,0,0,1-3.16-6.188V541.088a7.669,7.669,0,0,1,12.18-6.187L1179,592.844l79.83-57.943a7.664,7.664,0,0,1,12.17,6.187v53.564A7.659,7.659,0,0,1,1267.84,600.84Zm-12.17-44.724-72.16,52.376a7.685,7.685,0,0,1-9.02,0l-72.16-52.376v34.639L1179,646.408l76.67-55.653V556.116Zm12.17-54.753-84.33,61.217a7.679,7.679,0,0,1-9.02,0l-84.33-61.217a7.656,7.656,0,0,1-3.16-6.187V441.612a7.669,7.669,0,0,1,12.18-6.187L1179,493.368l79.83-57.943a7.664,7.664,0,0,1,12.17,6.187v53.564A7.656,7.656,0,0,1,1267.84,501.363Zm-12.17-44.723-72.16,52.376a7.685,7.685,0,0,1-9.02,0l-72.16-52.376v34.639L1179,546.932l76.67-55.653V456.64Z" transform="translate(-1087 -433.938)"/>
</svg>

